<svg xmlns="http://www.w3.org/2000/svg" viewBox="0 0 424.06 367.25"><defs><style>.ac807bd4-e0b0-47c2-ab14-97edde231dc6{fill:#1c1c1c;}</style></defs><g id="a330a95c-4806-4def-845e-b878dec75f2a" data-name="Layer 2"><g id="bcfb5c3e-5a5b-4f79-bd52-b22b684a4fe3" data-name="Layer 2"><path class="ac807bd4-e0b0-47c2-ab14-97edde231dc6" d="M330.81,295.75l-36.66-63.5-15.3-26.5h-52l-15.35-26.59-10.68-18.5L186.05,135l-28.29,49-51.38,89-2.48,4.26h60.35l-4.66-8.08-10.06-17.42-.14-.25L160.07,233l10.2,17.67,15.34,26.58h82.56l-15.3-26.5h-52l0-.08-10.64-18.42h73.33l10.68,18.5,15.31,26.5,10.68,18.5H71.88L186.05,98l25.5,44.17,10.68,18.5,15.34,26.58h30.6l-41.32-71.58L188.51,49.24l-2.44-4.18,0-.05L28.44,318,26,322.25H346.11Zm-155-90L186.05,188l10.2,17.67.05.08Z"/><polygon class="ac807bd4-e0b0-47c2-ab14-97edde231dc6" points="212.03 0 196.73 26.5 196.76 26.55 378.17 340.75 15.3 340.75 0 367.25 424.06 367.25 212.03 0"/></g></g></svg>